<svg width="17" height="18" viewBox="0 0 17 18" fill="none" xmlns="http://www.w3.org/2000/svg">
<path d="M5.3125 10.0625H9.5625V11.125H5.3125V10.0625ZM5.3125 7.40625H11.6875V8.46875H5.3125V7.40625ZM5.3125 12.7188H7.96875V13.7812H5.3125V12.7188Z" fill="#147771"/>
<path d="M13.2812 3.15625H11.6875V2.625C11.6875 2.34321 11.5756 2.07296 11.3763 1.8737C11.177 1.67444 10.9068 1.5625 10.625 1.5625H6.375C6.09321 1.5625 5.82296 1.67444 5.6237 1.8737C5.42444 2.07296 5.3125 2.34321 5.3125 2.625V3.15625H3.71875C3.43696 3.15625 3.16671 3.26819 2.96745 3.46745C2.76819 3.66671 2.65625 3.93696 2.65625 4.21875V15.375C2.65625 15.6568 2.76819 15.927 2.96745 16.1263C3.16671 16.3256 3.43696 16.4375 3.71875 16.4375H13.2812C13.563 16.4375 13.8333 16.3256 14.0326 16.1263C14.2318 15.927 14.3438 15.6568 14.3438 15.375V4.21875C14.3438 3.93696 14.2318 3.66671 14.0326 3.46745C13.8333 3.26819 13.563 3.15625 13.2812 3.15625ZM6.375 2.625H10.625V4.75H6.375V2.625ZM13.2812 15.375H3.71875V4.21875H5.3125V5.8125H11.6875V4.21875H13.2812V15.375Z" fill="#147771"/>
</svg>
