<svg width="25" height="25" viewBox="0 0 25 25" fill="none" xmlns="http://www.w3.org/2000/svg">
<path d="M12.5 2C10.4233 2 8.39323 2.61581 6.66652 3.76957C4.9398 4.92332 3.59399 6.5632 2.79927 8.48182C2.00455 10.4004 1.79661 12.5116 2.20176 14.5484C2.6069 16.5852 3.60693 18.4562 5.07538 19.9246C6.54383 21.3931 8.41476 22.3931 10.4516 22.7982C12.4884 23.2034 14.5996 22.9955 16.5182 22.2007C18.4368 21.406 20.0767 20.0602 21.2304 18.3335C22.3842 16.6068 23 14.5767 23 12.5C23 9.71523 21.8938 7.04451 19.9246 5.07538C17.9555 3.10625 15.2848 2 12.5 2ZM12.5 21.5C10.72 21.5 8.97992 20.9722 7.49987 19.9832C6.01983 18.9943 4.86628 17.5887 4.18509 15.9442C3.5039 14.2996 3.32567 12.49 3.67294 10.7442C4.0202 8.99836 4.87737 7.39471 6.13604 6.13604C7.39472 4.87737 8.99836 4.0202 10.7442 3.67293C12.49 3.32567 14.2996 3.5039 15.9442 4.18508C17.5887 4.86627 18.9943 6.01983 19.9832 7.49987C20.9722 8.97991 21.5 10.72 21.5 12.5C21.5 14.8869 20.5518 17.1761 18.864 18.864C17.1761 20.5518 14.887 21.5 12.5 21.5Z" fill="white"/>
<path d="M12.5 19.25C13.1213 19.25 13.625 18.7463 13.625 18.125C13.625 17.5037 13.1213 17 12.5 17C11.8787 17 11.375 17.5037 11.375 18.125C11.375 18.7463 11.8787 19.25 12.5 19.25Z" fill="white"/>
<path d="M13.25 6.50001H12.125C11.6815 6.49902 11.2422 6.58564 10.8323 6.7549C10.4224 6.92416 10.0499 7.17272 9.73632 7.48632C9.42272 7.79991 9.17416 8.17236 9.0049 8.58228C8.83564 8.9922 8.74902 9.43152 8.75001 9.87501V10.25H10.25V9.87501C10.25 9.37773 10.4476 8.90081 10.7992 8.54918C11.1508 8.19755 11.6277 8.00001 12.125 8.00001H13.25C13.7473 8.00001 14.2242 8.19755 14.5758 8.54918C14.9275 8.90081 15.125 9.37773 15.125 9.87501C15.125 10.3723 14.9275 10.8492 14.5758 11.2008C14.2242 11.5525 13.7473 11.75 13.25 11.75H11.75V15.125H13.25V13.25C14.1451 13.25 15.0036 12.8944 15.6365 12.2615C16.2694 11.6286 16.625 10.7701 16.625 9.87501C16.625 8.9799 16.2694 8.12146 15.6365 7.48852C15.0036 6.85559 14.1451 6.50001 13.25 6.50001Z" fill="white"/>
</svg>
