<svg width="20" height="20" viewBox="0 0 20 20" fill="none" xmlns="http://www.w3.org/2000/svg">
<g clip-path="url(#clip0_2070_3481)">
<path d="M18.3335 2.22223H1.66688C1.51954 2.22223 1.37823 2.28076 1.27405 2.38495C1.16986 2.48913 1.11133 2.63044 1.11133 2.77778V3.70556C1.11143 3.83678 1.1375 3.96667 1.18804 4.08777C1.23857 4.20886 1.31257 4.31875 1.40577 4.41112L7.77799 10.8778V16.5445L8.88911 16.9667V10.5556C8.88953 10.4824 8.87551 10.41 8.84787 10.3423C8.82022 10.2746 8.77948 10.213 8.72799 10.1611L2.22244 3.66112V3.33334H17.778V3.67223L11.2947 10.1611C11.2391 10.2112 11.1943 10.2719 11.1628 10.3397C11.1313 10.4074 11.1138 10.4809 11.1113 10.5556V17.8945L12.2224 18.3333V10.8333L18.5947 4.44445C18.6894 4.34974 18.7642 4.23707 18.8148 4.11305C18.8653 3.98903 18.8906 3.85615 18.8891 3.72223V2.77778C18.8891 2.63044 18.8306 2.48913 18.7264 2.38495C18.6222 2.28076 18.4809 2.22223 18.3335 2.22223Z" fill="#147771"/>
</g>
<defs>
<clipPath id="clip0_2070_3481">
<rect width="20" height="20" fill="white"/>
</clipPath>
</defs>
</svg>
