<svg width="17" height="18" viewBox="0 0 17 18" fill="none" xmlns="http://www.w3.org/2000/svg">
<g clip-path="url(#clip0_2070_4217)">
<path d="M15.2292 3.33325H13.6945V4.2777H15.1111V14.6666H1.8889V4.2777H3.30557V3.33325H1.77085C1.66046 3.3351 1.55151 3.35867 1.45024 3.40263C1.34896 3.44658 1.25734 3.51006 1.1806 3.58943C1.10386 3.6688 1.0435 3.76251 1.00299 3.86521C0.96247 3.96791 0.942581 4.07759 0.944457 4.18797V14.7563C0.942581 14.8667 0.96247 14.9764 1.00299 15.0791C1.0435 15.1818 1.10386 15.2755 1.1806 15.3549C1.25734 15.4342 1.34896 15.4977 1.45024 15.5417C1.55151 15.5856 1.66046 15.6092 1.77085 15.611H15.2292C15.3396 15.6092 15.4485 15.5856 15.5498 15.5417C15.6511 15.4977 15.7427 15.4342 15.8194 15.3549C15.8962 15.2755 15.9565 15.1818 15.997 15.0791C16.0376 14.9764 16.0574 14.8667 16.0556 14.7563V4.18797C16.0574 4.07759 16.0376 3.96791 15.997 3.86521C15.9565 3.76251 15.8962 3.6688 15.8194 3.58943C15.7427 3.51006 15.6511 3.44658 15.5498 3.40263C15.4485 3.35867 15.3396 3.3351 15.2292 3.33325Z" fill="#616161"/>
<path d="M3.77783 7.11108H4.72228V8.05553H3.77783V7.11108Z" fill="#616161"/>
<path d="M6.61133 7.11108H7.55577V8.05553H6.61133V7.11108Z" fill="#616161"/>
<path d="M9.44434 7.11108H10.3888V8.05553H9.44434V7.11108Z" fill="#616161"/>
<path d="M12.2778 7.11108H13.2223V8.05553H12.2778V7.11108Z" fill="#616161"/>
<path d="M3.77783 9.47217H4.72228V10.4166H3.77783V9.47217Z" fill="#616161"/>
<path d="M6.61133 9.47217H7.55577V10.4166H6.61133V9.47217Z" fill="#616161"/>
<path d="M9.44434 9.47217H10.3888V10.4166H9.44434V9.47217Z" fill="#616161"/>
<path d="M12.2778 9.47217H13.2223V10.4166H12.2778V9.47217Z" fill="#616161"/>
<path d="M3.77783 11.8333H4.72228V12.7777H3.77783V11.8333Z" fill="#616161"/>
<path d="M6.61133 11.8333H7.55577V12.7777H6.61133V11.8333Z" fill="#616161"/>
<path d="M9.44434 11.8333H10.3888V12.7777H9.44434V11.8333Z" fill="#616161"/>
<path d="M12.2778 11.8333H13.2223V12.7777H12.2778V11.8333Z" fill="#616161"/>
<path d="M4.72222 5.22211C4.84746 5.22211 4.96757 5.17236 5.05613 5.0838C5.14469 4.99524 5.19444 4.87513 5.19444 4.74989V1.91656C5.19444 1.79132 5.14469 1.67121 5.05613 1.58265C4.96757 1.49409 4.84746 1.44434 4.72222 1.44434C4.59698 1.44434 4.47687 1.49409 4.38831 1.58265C4.29975 1.67121 4.25 1.79132 4.25 1.91656V4.74989C4.25 4.87513 4.29975 4.99524 4.38831 5.0838C4.47687 5.17236 4.59698 5.22211 4.72222 5.22211Z" fill="#616161"/>
<path d="M12.2779 5.22211C12.4031 5.22211 12.5232 5.17236 12.6118 5.0838C12.7004 4.99524 12.7501 4.87513 12.7501 4.74989V1.91656C12.7501 1.79132 12.7004 1.67121 12.6118 1.58265C12.5232 1.49409 12.4031 1.44434 12.2779 1.44434C12.1526 1.44434 12.0325 1.49409 11.944 1.58265C11.8554 1.67121 11.8057 1.79132 11.8057 1.91656V4.74989C11.8057 4.87513 11.8554 4.99524 11.944 5.0838C12.0325 5.17236 12.1526 5.22211 12.2779 5.22211Z" fill="#616161"/>
<path d="M6.13867 3.33325H10.8609V4.2777H6.13867V3.33325Z" fill="#616161"/>
</g>
<defs>
<clipPath id="clip0_2070_4217">
<rect width="17" height="17" fill="white" transform="translate(0 0.5)"/>
</clipPath>
</defs>
</svg>
