<svg width="22" height="24" viewBox="0 0 22 24" fill="none" xmlns="http://www.w3.org/2000/svg">
<g clip-path="url(#clip0_777_3144)">
<path d="M13.6961 16.6607V19.4866C13.6961 20.0848 13.5127 20.3839 13.146 20.3839C12.9297 20.3839 12.7181 20.2857 12.5113 20.0893V16.058C12.7181 15.8616 12.9297 15.7634 13.146 15.7634C13.5127 15.7634 13.6961 16.0625 13.6961 16.6607ZM18.4636 16.6741V17.2902H17.1942V16.6741C17.1942 16.067 17.4057 15.7634 17.8289 15.7634C18.252 15.7634 18.4636 16.067 18.4636 16.6741ZM4.83807 13.7545H6.34732V12.4955H1.94653V13.7545H3.42756V21.375H4.83807V13.7545ZM8.90035 21.375H10.1557V14.7589H8.90035V19.8214C8.61824 20.1964 8.35025 20.3839 8.09635 20.3839C7.92709 20.3839 7.82836 20.2902 7.80015 20.1027C7.79074 20.0759 7.78604 19.9196 7.78604 19.6339V14.7589H6.53069V19.9955C6.53069 20.433 6.5683 20.7589 6.64353 20.9732C6.75637 21.3036 7.02907 21.4688 7.46162 21.4688C7.91299 21.4688 8.39256 21.1964 8.90035 20.6518V21.375ZM14.9514 19.3929V16.7545C14.9514 16.1027 14.9091 15.6607 14.8245 15.4286C14.6646 14.9286 14.3308 14.6786 13.823 14.6786C13.3529 14.6786 12.9156 14.9196 12.5113 15.4018V12.4955H11.2559V21.375H12.5113V20.7321C12.9344 21.2232 13.3717 21.4688 13.823 21.4688C14.3308 21.4688 14.6646 21.2232 14.8245 20.7321C14.9091 20.4911 14.9514 20.0446 14.9514 19.3929ZM19.719 19.2589V19.0848H18.4354C18.4354 19.5402 18.426 19.8125 18.4072 19.9018C18.3414 20.2232 18.1533 20.3839 17.843 20.3839C17.4104 20.3839 17.1942 20.0759 17.1942 19.4598V18.2946H19.719V16.9152C19.719 16.2098 19.592 15.692 19.3381 15.3616C18.9714 14.9062 18.473 14.6786 17.843 14.6786C17.2036 14.6786 16.7005 14.9062 16.3337 15.3616C16.0704 15.692 15.9388 16.2098 15.9388 16.9152V19.2321C15.9388 19.9375 16.0751 20.4554 16.3478 20.7857C16.7146 21.2411 17.2224 21.4688 17.8712 21.4688C18.5482 21.4688 19.056 21.2321 19.3945 20.7589C19.5638 20.5179 19.6625 20.2768 19.6908 20.0357C19.7096 19.9554 19.719 19.6964 19.719 19.2589ZM11.1431 7.03125V4.21875C11.1431 3.60268 10.9409 3.29464 10.5365 3.29464C10.1322 3.29464 9.93002 3.60268 9.93002 4.21875V7.03125C9.93002 7.65625 10.1322 7.96875 10.5365 7.96875C10.9409 7.96875 11.1431 7.65625 11.1431 7.03125ZM21.2846 17.0893C21.2846 19.1786 21.1624 20.7411 20.9179 21.7768C20.7863 22.3036 20.5136 22.7455 20.0998 23.1027C19.6861 23.4598 19.2065 23.6652 18.6611 23.7188C16.9309 23.9062 14.3214 24 10.8327 24C7.34408 24 4.73464 23.9062 3.00441 23.7188C2.45901 23.6652 1.97709 23.4598 1.55864 23.1027C1.14018 22.7455 0.869837 22.3036 0.747592 21.7768C0.503104 20.7768 0.380859 19.2143 0.380859 17.0893C0.380859 15 0.503104 13.4375 0.747592 12.4018C0.87924 11.875 1.15194 11.433 1.56569 11.0759C1.97944 10.7188 2.46371 10.5089 3.01852 10.4464C4.73934 10.2679 7.34408 10.1786 10.8327 10.1786C14.3214 10.1786 16.9309 10.2679 18.6611 10.4464C19.2065 10.5089 19.6884 10.7188 20.1069 11.0759C20.5253 11.433 20.7957 11.875 20.9179 12.4018C21.1624 13.4018 21.2846 14.9643 21.2846 17.0893ZM7.20773 0H8.64645L6.93974 5.34375V8.97321H5.52922V5.34375C5.39758 4.68304 5.11077 3.73661 4.66881 2.50446C4.32089 1.58482 4.01528 0.75 3.75198 0H5.24712L6.24859 3.52232L7.20773 0ZM12.4266 4.45982V6.80357C12.4266 7.52679 12.295 8.05357 12.0317 8.38393C11.6744 8.83929 11.176 9.06696 10.5365 9.06696C9.90651 9.06696 9.41283 8.83929 9.0555 8.38393C8.79221 8.04464 8.66056 7.51786 8.66056 6.80357V4.45982C8.66056 3.74554 8.79221 3.22321 9.0555 2.89286C9.41283 2.4375 9.90651 2.20982 10.5365 2.20982C11.176 2.20982 11.6744 2.4375 12.0317 2.89286C12.295 3.22321 12.4266 3.74554 12.4266 4.45982ZM17.1518 2.29018V8.97321H15.8683V8.23661C15.3699 8.79018 14.8856 9.06696 14.4154 9.06696C13.9829 9.06696 13.7055 8.90179 13.5832 8.57143C13.508 8.35714 13.4704 8.02232 13.4704 7.56696V2.29018H14.754V7.20536C14.754 7.5 14.7587 7.65625 14.7681 7.67411C14.7963 7.87054 14.895 7.96875 15.0643 7.96875C15.3182 7.96875 15.5862 7.77679 15.8683 7.39286V2.29018H17.1518Z" fill="white"/>
</g>
<defs>
<clipPath id="clip0_777_3144">
<rect width="21.6655" height="24" fill="white"/>
</clipPath>
</defs>
</svg>
