<svg width="17" height="18" viewBox="0 0 17 18" fill="none" xmlns="http://www.w3.org/2000/svg">
<path d="M8.5 16.4375C4.39875 16.4375 1.0625 13.1012 1.0625 9C1.0625 4.89875 4.39875 1.5625 8.5 1.5625C12.6012 1.5625 15.9375 4.89875 15.9375 9C15.9375 13.1012 12.6012 16.4375 8.5 16.4375ZM8.5 2.625C4.98312 2.625 2.125 5.48312 2.125 9C2.125 12.5169 4.98312 15.375 8.5 15.375C12.0169 15.375 14.875 12.5169 14.875 9C14.875 5.48312 12.0169 2.625 8.5 2.625Z" fill="#616161"/>
<path d="M10.625 11.6562C10.5294 11.6562 10.4338 11.635 10.3488 11.5819L7.69253 9.98813C7.61386 9.94085 7.54893 9.8738 7.50419 9.79365C7.45945 9.7135 7.43648 9.62303 7.43754 9.53125V5.28125C7.43754 4.98375 7.67129 4.75 7.96879 4.75C8.26629 4.75 8.50004 4.98375 8.50004 5.28125V9.23375L10.9013 10.6681C11.0002 10.7287 11.0766 10.82 11.119 10.9279C11.1614 11.0359 11.1675 11.1548 11.1362 11.2665C11.105 11.3782 11.0382 11.4767 10.946 11.547C10.8537 11.6174 10.741 11.6557 10.625 11.6562Z" fill="#616161"/>
</svg>
