<svg width="33" height="33" viewBox="0 0 33 33" fill="none" xmlns="http://www.w3.org/2000/svg">
<rect x="32.5" y="32.5" width="32" height="32" rx="16" transform="rotate(-180 32.5 32.5)" fill="#5DA1F6"/>
<path d="M13.7934 10.1365C13.606 10.3241 13.5007 10.5784 13.5007 10.8435C13.5007 11.1087 13.606 11.363 13.7934 11.5505L18.7434 16.5005L13.7934 21.4505C13.6113 21.6391 13.5105 21.8917 13.5128 22.1539C13.515 22.4161 13.6202 22.6669 13.8056 22.8524C13.991 23.0378 14.2418 23.1429 14.504 23.1452C14.7662 23.1475 15.0188 23.0467 15.2074 22.8645L20.8644 17.2075C21.0519 17.02 21.1572 16.7657 21.1572 16.5005C21.1572 16.2354 21.0519 15.9811 20.8644 15.7935L15.2074 10.1365C15.0199 9.94907 14.7656 9.84375 14.5004 9.84375C14.2353 9.84375 13.981 9.94907 13.7934 10.1365Z" fill="white"/>
</svg>
