<svg width="30" height="30" viewBox="0 0 30 30" fill="none" xmlns="http://www.w3.org/2000/svg">
<rect width="30.0007" height="30" rx="15" fill="#1778F2"/>
<path d="M12.9 17.0419V17.45C12.9 18.2854 13.2319 19.0866 13.8226 19.6774C14.4134 20.2681 15.2146 20.6 16.05 20.6C16.8854 20.6 17.6866 20.2681 18.2774 19.6774C18.8681 19.0866 19.2 18.2854 19.2 17.45V16.281C18.7328 16.1159 18.3389 15.7909 18.0882 15.3634C17.8374 14.936 17.7458 14.4337 17.8295 13.9452C17.9133 13.4568 18.1671 13.0137 18.5459 12.6943C18.9248 12.3749 19.4044 12.1997 19.9 12.1997C20.3956 12.1997 20.8752 12.3749 21.2541 12.6943C21.6329 13.0137 21.8867 13.4568 21.9705 13.9452C22.0542 14.4337 21.9626 14.936 21.7119 15.3634C21.4611 15.7909 21.0672 16.1159 20.6 16.281V17.45C20.6 18.6567 20.1206 19.814 19.2673 20.6673C18.414 21.5206 17.2567 22 16.05 22C14.8433 22 13.686 21.5206 12.8327 20.6673C11.9794 19.814 11.5 18.6567 11.5 17.45V17.0419C10.5213 16.8762 9.63297 16.3694 8.99232 15.6112C8.35167 14.8531 8.00013 13.8926 8 12.9V9.4C8 9.0287 8.1475 8.6726 8.41005 8.41005C8.6726 8.1475 9.0287 8 9.4 8H10.1C10.2857 8 10.4637 8.07375 10.595 8.20503C10.7263 8.3363 10.8 8.51435 10.8 8.7C10.8 8.88565 10.7263 9.0637 10.595 9.19497C10.4637 9.32625 10.2857 9.4 10.1 9.4H9.4V12.9C9.4 13.6426 9.695 14.3548 10.2201 14.8799C10.7452 15.405 11.4574 15.7 12.2 15.7C12.9426 15.7 13.6548 15.405 14.1799 14.8799C14.705 14.3548 15 13.6426 15 12.9V9.4H14.3C14.1143 9.4 13.9363 9.32625 13.805 9.19497C13.6738 9.0637 13.6 8.88565 13.6 8.7C13.6 8.51435 13.6738 8.3363 13.805 8.20503C13.9363 8.07375 14.1143 8 14.3 8H15C15.3713 8 15.7274 8.1475 15.99 8.41005C16.2525 8.6726 16.4 9.0287 16.4 9.4V12.9C16.3999 13.8926 16.0483 14.8531 15.4077 15.6112C14.767 16.3694 13.8787 16.8762 12.9 17.0419ZM19.9 15C20.0857 15 20.2637 14.9262 20.395 14.795C20.5263 14.6637 20.6 14.4857 20.6 14.3C20.6 14.1143 20.5263 13.9363 20.395 13.805C20.2637 13.6737 20.0857 13.6 19.9 13.6C19.7144 13.6 19.5363 13.6737 19.405 13.805C19.2738 13.9363 19.2 14.1143 19.2 14.3C19.2 14.4857 19.2738 14.6637 19.405 14.795C19.5363 14.9262 19.7144 15 19.9 15Z" fill="white"/>
</svg>
