<svg width="30" height="26" viewBox="0 0 30 26" fill="none" xmlns="http://www.w3.org/2000/svg">
<rect width="30" height="26" rx="2" fill="#8C7878"/>
<g clip-path="url(#clip0_2070_3908)">
<path fill-rule="evenodd" clip-rule="evenodd" d="M16.7102 6C17.0389 6.00008 17.3571 6.1158 17.609 6.3269L17.7 6.4102L20.7898 9.5C21.0222 9.73242 21.1654 10.0392 21.1944 10.3666L21.2 10.4898V18.6C21.2001 18.9532 21.0667 19.2934 20.8266 19.5524C20.5864 19.8114 20.2572 19.97 19.905 19.9965L19.8 20H11.4C11.0468 20.0001 10.7066 19.8667 10.4476 19.6266C10.1886 19.3864 10.03 19.0572 10.0035 18.705L10 18.6V7.4C9.99989 7.0468 10.1333 6.7066 10.3734 6.44762C10.6136 6.18863 10.9428 6.02999 11.295 6.0035L11.4 6H16.7102ZM15.6 7.4H11.4V18.6H19.8V11.6H16.65C16.389 11.6 16.1373 11.5028 15.9441 11.3273C15.7509 11.1518 15.63 10.9106 15.6049 10.6508L15.6 10.55V7.4ZM16.2916 12.8936C16.4594 13.9597 17.0169 14.9255 17.8561 15.604C18.477 16.1059 17.9093 17.0887 17.1645 16.8024C16.1575 16.4149 15.0425 16.4149 14.0355 16.8024C13.29 17.0894 12.7223 16.1059 13.3432 15.604C14.1825 14.9256 14.74 13.9597 14.9077 12.8936C15.0323 12.1047 16.1677 12.1054 16.2916 12.8936ZM15.5986 14.5064L15.117 15.3436H16.083L15.5986 14.5064ZM17 7.6898V10.2H19.5102L17 7.6898Z" fill="black"/>
</g>
<defs>
<clipPath id="clip0_2070_3908">
<rect width="15" height="24" fill="white" transform="translate(8 1)"/>
</clipPath>
</defs>
</svg>
