<svg width="18" height="18" viewBox="0 0 18 18" fill="none" xmlns="http://www.w3.org/2000/svg">
<path d="M5.25 8.25H8.25V5.25H9.75V8.25H12.75V9.75H9.75V12.75H8.25V9.75H5.25V8.25Z" fill="#616161"/>
<path fill-rule="evenodd" clip-rule="evenodd" d="M3.375 2.25C3.07663 2.25 2.79048 2.36853 2.5795 2.5795C2.36853 2.79048 2.25 3.07663 2.25 3.375V14.625C2.25 14.9234 2.36853 15.2095 2.5795 15.4205C2.79048 15.6315 3.07663 15.75 3.375 15.75H14.625C14.9234 15.75 15.2095 15.6315 15.4205 15.4205C15.6315 15.2095 15.75 14.9234 15.75 14.625V3.375C15.75 3.07663 15.6315 2.79048 15.4205 2.5795C15.2095 2.36853 14.9234 2.25 14.625 2.25H3.375ZM15 3.375C15 3.27554 14.9605 3.18016 14.8902 3.10984C14.8198 3.03951 14.7245 3 14.625 3H3.375C3.27554 3 3.18016 3.03951 3.10984 3.10984C3.03951 3.18016 3 3.27554 3 3.375V14.625C3 14.7245 3.03951 14.8198 3.10984 14.8902C3.18016 14.9605 3.27554 15 3.375 15H14.625C14.7245 15 14.8198 14.9605 14.8902 14.8902C14.9605 14.8198 15 14.7245 15 14.625V3.375Z" fill="#616161"/>
</svg>
