<svg width="17" height="16" viewBox="0 0 17 16" fill="none" xmlns="http://www.w3.org/2000/svg">
<path d="M8.75879 1.5C6.27441 1.5 4.25879 3.41844 4.25879 5.78125C4.25879 8.5 7.25879 12.8084 8.36035 14.2966C8.40608 14.3594 8.46601 14.4105 8.53525 14.4457C8.6045 14.481 8.68109 14.4994 8.75879 14.4994C8.83649 14.4994 8.91308 14.481 8.98233 14.4457C9.05157 14.4105 9.1115 14.3594 9.15723 14.2966C10.2588 12.8091 13.2588 8.50219 13.2588 5.78125C13.2588 3.41844 11.2432 1.5 8.75879 1.5Z" stroke="#030632" stroke-width="1.3" stroke-linecap="round" stroke-linejoin="round"/>
<path d="M8.75879 7.5C9.58722 7.5 10.2588 6.82843 10.2588 6C10.2588 5.17157 9.58722 4.5 8.75879 4.5C7.93036 4.5 7.25879 5.17157 7.25879 6C7.25879 6.82843 7.93036 7.5 8.75879 7.5Z" stroke="#030632" stroke-width="1.3" stroke-linecap="round" stroke-linejoin="round"/>
</svg>
