<svg width="18" height="18" viewBox="0 0 18 18" fill="none" xmlns="http://www.w3.org/2000/svg">
<path d="M6.9 11.0419V11.45C6.9 12.2854 7.23187 13.0866 7.82261 13.6774C8.41335 14.2681 9.21457 14.6 10.05 14.6C10.8854 14.6 11.6866 14.2681 12.2774 13.6774C12.8681 13.0866 13.2 12.2854 13.2 11.45V10.281C12.7328 10.1159 12.3389 9.79086 12.0882 9.36344C11.8374 8.93601 11.7458 8.43368 11.8295 7.94525C11.9133 7.45681 12.1671 7.01372 12.5459 6.69429C12.9248 6.37486 13.4044 6.19966 13.9 6.19966C14.3956 6.19966 14.8752 6.37486 15.2541 6.69429C15.6329 7.01372 15.8867 7.45681 15.9705 7.94525C16.0542 8.43368 15.9626 8.93601 15.7119 9.36344C15.4611 9.79086 15.0672 10.1159 14.6 10.281V11.45C14.6 12.6567 14.1206 13.814 13.2673 14.6673C12.414 15.5206 11.2567 16 10.05 16C8.84327 16 7.68596 15.5206 6.83266 14.6673C5.97937 13.814 5.5 12.6567 5.5 11.45V11.0419C4.52135 10.8762 3.63297 10.3694 2.99232 9.61121C2.35167 8.85306 2.00013 7.89258 2 6.9L2 3.4C2 3.0287 2.1475 2.6726 2.41005 2.41005C2.6726 2.1475 3.0287 2 3.4 2H4.1C4.28565 2 4.4637 2.07375 4.59498 2.20503C4.72625 2.3363 4.8 2.51435 4.8 2.7C4.8 2.88565 4.72625 3.0637 4.59498 3.19497C4.4637 3.32625 4.28565 3.4 4.1 3.4H3.4V6.9C3.4 7.64261 3.695 8.3548 4.2201 8.8799C4.7452 9.405 5.45739 9.7 6.2 9.7C6.94261 9.7 7.6548 9.405 8.1799 8.8799C8.705 8.3548 9 7.64261 9 6.9V3.4H8.3C8.11435 3.4 7.9363 3.32625 7.80503 3.19497C7.67375 3.0637 7.6 2.88565 7.6 2.7C7.6 2.51435 7.67375 2.3363 7.80503 2.20503C7.9363 2.07375 8.11435 2 8.3 2H9C9.3713 2 9.7274 2.1475 9.98995 2.41005C10.2525 2.6726 10.4 3.0287 10.4 3.4V6.9C10.3999 7.89258 10.0483 8.85306 9.40768 9.61121C8.76703 10.3694 7.87865 10.8762 6.9 11.0419ZM13.9 9C14.0857 9 14.2637 8.92625 14.395 8.79497C14.5263 8.6637 14.6 8.48565 14.6 8.3C14.6 8.11435 14.5263 7.9363 14.395 7.80503C14.2637 7.67375 14.0857 7.6 13.9 7.6C13.7144 7.6 13.5363 7.67375 13.405 7.80503C13.2738 7.9363 13.2 8.11435 13.2 8.3C13.2 8.48565 13.2738 8.6637 13.405 8.79497C13.5363 8.92625 13.7144 9 13.9 9Z" fill="#5DA1F6"/>
</svg>
