<svg width="58" height="6" viewBox="0 0 58 6" fill="none" xmlns="http://www.w3.org/2000/svg">
<path d="M0.866667 3C0.866667 4.17821 1.82179 5.13333 3 5.13333C4.17821 5.13333 5.13333 4.17821 5.13333 3C5.13333 1.82179 4.17821 0.866667 3 0.866667C1.82179 0.866667 0.866667 1.82179 0.866667 3ZM52.8667 3C52.8667 4.17821 53.8218 5.13333 55 5.13333C56.1782 5.13333 57.1333 4.17821 57.1333 3C57.1333 1.82179 56.1782 0.866667 55 0.866667C53.8218 0.866667 52.8667 1.82179 52.8667 3ZM3 3.4H55V2.6H3V3.4Z" fill="#1778F2"/>
</svg>
