<svg width="20" height="20" viewBox="0 0 20 20" fill="none" xmlns="http://www.w3.org/2000/svg">
<path d="M5.41667 11.25H14.5833V10.4167H5.41667V11.25ZM5.41667 8.75H14.5833V7.91667H5.41667V8.75ZM5.41667 6.25H14.5833V5.41667H5.41667V6.25ZM17.5 16.7308L14.9358 14.1667H3.84583C3.4625 14.1667 3.1425 14.0383 2.88583 13.7817C2.62917 13.525 2.50056 13.2047 2.5 12.8208V3.84583C2.5 3.4625 2.62861 3.1425 2.88583 2.88583C3.14306 2.62917 3.46306 2.50056 3.84583 2.5H16.1542C16.5375 2.5 16.8575 2.62861 17.1142 2.88583C17.3708 3.14306 17.4994 3.46306 17.5 3.84583V16.7308ZM3.84583 13.3333H15.2917L16.6667 14.7033V3.84583C16.6667 3.71806 16.6133 3.60056 16.5067 3.49333C16.4 3.38611 16.2825 3.33278 16.1542 3.33333H3.84583C3.71806 3.33333 3.60056 3.38667 3.49333 3.49333C3.38611 3.6 3.33278 3.7175 3.33333 3.84583V12.8208C3.33333 12.9486 3.38667 13.0661 3.49333 13.1733C3.6 13.2806 3.7175 13.3339 3.84583 13.3333Z" fill="#030632"/>
</svg>
