<svg width="18" height="18" viewBox="0 0 18 18" fill="none" xmlns="http://www.w3.org/2000/svg">
<path d="M9.00005 7.5C10.6575 7.5 12 6.1575 12 4.5C12 2.8425 10.6575 1.5 9.00005 1.5C7.34255 1.5 6.00005 2.8425 6.00005 4.5C6.00005 6.1575 7.34255 7.5 9.00005 7.5ZM9.00005 3C9.82505 3 10.5 3.675 10.5 4.5C10.5 5.325 9.82505 6 9.00005 6C8.17505 6 7.50005 5.325 7.50005 4.5C7.50005 3.675 8.17505 3 9.00005 3ZM13.7925 9.42C12.5325 8.775 10.8975 8.25 9.00005 8.25C7.10255 8.25 5.46755 8.775 4.20755 9.42C3.84159 9.60849 3.53502 9.8947 3.32187 10.2469C3.10872 10.599 2.99733 11.0034 3.00005 11.415V16.5H4.50005V11.415C4.50005 11.13 4.65005 10.875 4.87505 10.755C5.78255 10.2975 7.22255 9.75 9.00005 9.75C9.57005 9.75 10.1025 9.8025 10.5975 9.9L9.43505 12.375H7.31255C6.17255 12.375 5.25005 13.2975 5.25005 14.4375C5.25005 15.5775 6.17255 16.5 7.31255 16.5H13.5C14.325 16.5 15 15.825 15 15V11.415C15 10.575 14.5425 9.8025 13.7925 9.42ZM8.20505 15H7.31255C7.00505 15 6.75005 14.745 6.75005 14.4375C6.75005 14.13 7.00505 13.875 7.31255 13.875H8.73005L8.20505 15ZM13.5 15H9.86255L12.0675 10.2975C12.4725 10.4475 12.825 10.605 13.125 10.755C13.35 10.875 13.5 11.13 13.5 11.415V15Z" fill="#616161"/>
</svg>
