<svg width="1170" height="32" viewBox="0 0 1170 32" fill="none" xmlns="http://www.w3.org/2000/svg">
<rect x="1" y="0.5" width="31" height="31" rx="15.5" fill="white"/>
<rect x="1" y="0.5" width="31" height="31" rx="15.5" stroke="#147771"/>
<path d="M19.2066 22.3635C19.394 22.1759 19.4993 21.9216 19.4993 21.6565C19.4993 21.3913 19.394 21.137 19.2066 20.9495L14.2566 15.9995L19.2066 11.0495C19.3887 10.8609 19.4895 10.6083 19.4872 10.3461C19.485 10.0839 19.3798 9.83305 19.1944 9.64764C19.009 9.46224 18.7582 9.35707 18.496 9.35479C18.2338 9.35251 17.9812 9.45331 17.7926 9.63546L12.1356 15.2925C11.9481 15.48 11.8428 15.7343 11.8428 15.9995C11.8428 16.2646 11.9481 16.5189 12.1356 16.7065L17.7926 22.3635C17.9801 22.5509 18.2344 22.6562 18.4996 22.6562C18.7647 22.6562 19.019 22.5509 19.2066 22.3635Z" fill="#147771"/>
<rect x="1169.5" y="32" width="32" height="32" rx="16" transform="rotate(-180 1169.5 32)" fill="#5DA1F6"/>
<path d="M1150.79 9.63654C1150.61 9.82406 1150.5 10.0784 1150.5 10.3435C1150.5 10.6087 1150.61 10.863 1150.79 11.0505L1155.74 16.0005L1150.79 20.9505C1150.61 21.1391 1150.51 21.3917 1150.51 21.6539C1150.52 21.9161 1150.62 22.1669 1150.81 22.3524C1150.99 22.5378 1151.24 22.6429 1151.5 22.6452C1151.77 22.6475 1152.02 22.5467 1152.21 22.3645L1157.86 16.7075C1158.05 16.52 1158.16 16.2657 1158.16 16.0005C1158.16 15.7354 1158.05 15.4811 1157.86 15.2935L1152.21 9.63654C1152.02 9.44907 1151.77 9.34375 1151.5 9.34375C1151.24 9.34375 1150.98 9.44907 1150.79 9.63654Z" fill="white"/>
</svg>
