<svg width="25" height="25" viewBox="0 0 25 25" fill="none" xmlns="http://www.w3.org/2000/svg">
<path d="M13.7839 16.5769V17.2115C13.7839 17.8848 13.5165 18.5304 13.0404 19.0065C12.5644 19.4826 11.9187 19.75 11.2455 19.75C10.5722 19.75 9.92655 19.4826 9.4505 19.0065C8.97444 18.5304 8.707 17.8848 8.707 17.2115V16.5769M18.0549 15.2851C17.0363 14.0385 16.3172 13.4038 16.3172 9.96701C16.3172 6.81971 14.7101 5.69843 13.3873 5.15385C13.2116 5.08166 13.0462 4.91587 12.9926 4.7354C12.7606 3.9457 12.1101 3.25 11.2455 3.25C10.3808 3.25 9.72992 3.94609 9.50027 4.73619C9.44672 4.91864 9.28133 5.08166 9.10562 5.15385C7.78126 5.69922 6.17568 6.81654 6.17568 9.96701C6.1737 13.4038 5.4546 14.0385 4.43604 15.2851C4.01402 15.8015 4.38368 16.5769 5.12182 16.5769H17.3731C18.1072 16.5769 18.4745 15.7991 18.0549 15.2851Z" stroke="#147771" stroke-width="1.5" stroke-linecap="round" stroke-linejoin="round"/>
<circle cx="18.5161" cy="3" r="3" fill="#1778F2"/>
</svg>
