<svg width="15" height="16" viewBox="0 0 15 16" fill="none" xmlns="http://www.w3.org/2000/svg">
<path d="M7.5 13.625C6.38748 13.625 5.29995 13.2951 4.37492 12.677C3.44989 12.0589 2.72892 11.1804 2.30318 10.1526C1.87744 9.12476 1.76604 7.99376 1.98309 6.90262C2.20013 5.81148 2.73586 4.8092 3.52253 4.02253C4.3092 3.23586 5.31148 2.70013 6.40262 2.48309C7.49376 2.26604 8.62476 2.37744 9.6526 2.80318C10.6804 3.22892 11.5589 3.94989 12.177 4.87492C12.7951 5.79995 13.125 6.88748 13.125 8C13.125 9.49185 12.5324 10.9226 11.4775 11.9775C10.4226 13.0324 8.99185 13.625 7.5 13.625ZM7.5 3.3125C6.5729 3.3125 5.66662 3.58742 4.89577 4.10249C4.12491 4.61756 3.5241 5.34965 3.16932 6.20617C2.81453 7.0627 2.7217 8.0052 2.90257 8.91449C3.08344 9.82378 3.52988 10.659 4.18544 11.3146C4.841 11.9701 5.67623 12.4166 6.58552 12.5974C7.4948 12.7783 8.4373 12.6855 9.29383 12.3307C10.1504 11.9759 10.8824 11.3751 11.3975 10.6042C11.9126 9.83338 12.1875 8.9271 12.1875 8C12.1875 6.7568 11.6936 5.56452 10.8146 4.68544C9.93549 3.80636 8.74321 3.3125 7.5 3.3125Z" fill="#030632"/>
<path d="M9.375 8.46875H7.5C7.37618 8.46713 7.25789 8.41722 7.17033 8.32967C7.08277 8.24211 7.03287 8.12382 7.03125 8V4.875C7.03125 4.75068 7.08064 4.63145 7.16854 4.54354C7.25645 4.45564 7.37568 4.40625 7.5 4.40625C7.62432 4.40625 7.74355 4.45564 7.83146 4.54354C7.91936 4.63145 7.96875 4.75068 7.96875 4.875V7.53125H9.375C9.49932 7.53125 9.61855 7.58064 9.70646 7.66854C9.79436 7.75645 9.84375 7.87568 9.84375 8C9.84375 8.12432 9.79436 8.24355 9.70646 8.33146C9.61855 8.41936 9.49932 8.46875 9.375 8.46875Z" fill="#030632"/>
</svg>
