<svg width="24" height="24" viewBox="0 0 24 24" fill="none" xmlns="http://www.w3.org/2000/svg">
<path d="M9.62256 7.14117H7.43086C7.31076 7.14117 7.19558 7.18888 7.11066 7.2738C7.02574 7.35873 6.97803 7.47391 6.97803 7.594V9.78117C6.97803 9.90127 7.02574 10.0165 7.11066 10.1014C7.19558 10.1863 7.31076 10.234 7.43086 10.234H9.62256C9.74265 10.234 9.85783 10.1863 9.94276 10.1014C10.0277 10.0165 10.0754 9.90127 10.0754 9.78117V7.594C10.0754 7.47391 10.0277 7.35873 9.94276 7.2738C9.85783 7.18888 9.74265 7.14117 9.62256 7.14117ZM9.16973 9.32834H7.88369V8.04683H9.16973V9.32834ZM9.62256 11.991H7.43086C7.31076 11.991 7.19558 12.0387 7.11066 12.1236C7.02574 12.2085 6.97803 12.3237 6.97803 12.4438V14.631C6.97803 14.7511 7.02574 14.8663 7.11066 14.9512C7.19558 15.0361 7.31076 15.0838 7.43086 15.0838H9.62256C9.74265 15.0838 9.85783 15.0361 9.94276 14.9512C10.0277 14.8663 10.0754 14.7511 10.0754 14.631V12.4438C10.0754 12.3237 10.0277 12.2085 9.94276 12.1236C9.85783 12.0387 9.74265 11.991 9.62256 11.991ZM9.16973 14.1782H7.88369V12.8966H9.16973V14.1782ZM9.62256 16.8408H7.43086C7.31076 16.8408 7.19558 16.8885 7.11066 16.9734C7.02574 17.0583 6.97803 17.1735 6.97803 17.2936V19.4717C6.97803 19.5918 7.02574 19.707 7.11066 19.7919C7.19558 19.8769 7.31076 19.9246 7.43086 19.9246H9.62256C9.74265 19.9246 9.85783 19.8769 9.94276 19.7919C10.0277 19.707 10.0754 19.5918 10.0754 19.4717V17.2936C10.0754 17.1735 10.0277 17.0583 9.94276 16.9734C9.85783 16.8885 9.74265 16.8408 9.62256 16.8408ZM9.16973 19.028H7.88369V17.7465H9.16973V19.028ZM11.3569 8.23249C11.2368 8.23249 11.1216 8.2802 11.0367 8.36513C10.9518 8.45005 10.9041 8.56523 10.9041 8.68533C10.9041 8.80542 10.9518 8.9206 11.0367 9.00552C11.1216 9.09045 11.2368 9.13816 11.3569 9.13816H16.569C16.6891 9.13816 16.8042 9.09045 16.8892 9.00552C16.9741 8.9206 17.0218 8.80542 17.0218 8.68533C17.0218 8.56523 16.9741 8.45005 16.8892 8.36513C16.8042 8.2802 16.6891 8.23249 16.569 8.23249H11.3569ZM16.569 13.0823H11.3569C11.2368 13.0823 11.1216 13.13 11.0367 13.2149C10.9518 13.2999 10.9041 13.415 10.9041 13.5351C10.9041 13.6552 10.9518 13.7704 11.0367 13.8553C11.1216 13.9403 11.2368 13.988 11.3569 13.988H16.569C16.6891 13.988 16.8042 13.9403 16.8892 13.8553C16.9741 13.7704 17.0218 13.6552 17.0218 13.5351C17.0218 13.415 16.9741 13.2999 16.8892 13.2149C16.8042 13.13 16.6891 13.0823 16.569 13.0823ZM16.569 17.9366H11.3569C11.2368 17.9366 11.1216 17.9844 11.0367 18.0693C10.9518 18.1542 10.9041 18.2694 10.9041 18.3895C10.9041 18.5096 10.9518 18.6248 11.0367 18.7097C11.1216 18.7946 11.2368 18.8423 11.3569 18.8423H16.569C16.6891 18.8423 16.8042 18.7946 16.8892 18.7097C16.9741 18.6248 17.0218 18.5096 17.0218 18.3895C17.0218 18.2694 16.9741 18.1542 16.8892 18.0693C16.8042 17.9844 16.6891 17.9366 16.569 17.9366Z" fill="white"/>
<path d="M13.4357 1.13202H10.5647C10.4446 1.13202 10.3294 1.17973 10.2445 1.26465C10.1596 1.34957 10.1119 1.46475 10.1119 1.58485V3.10636H9.2832C8.97247 3.1067 8.67199 3.21759 8.43554 3.4192C8.19909 3.6208 8.04209 3.89997 7.99263 4.20674H5.1081C4.98801 4.20674 4.87283 4.25444 4.7879 4.33937C4.70298 4.42429 4.65527 4.53947 4.65527 4.65957V22.415C4.65527 22.5351 4.70298 22.6503 4.7879 22.7352C4.87283 22.8202 4.98801 22.8679 5.1081 22.8679H18.8923C19.0124 22.8679 19.1275 22.8202 19.2125 22.7352C19.2974 22.6503 19.3451 22.5351 19.3451 22.415V4.65957C19.3451 4.53947 19.2974 4.42429 19.2125 4.33937C19.1275 4.25444 19.0124 4.20674 18.8923 4.20674H16.0123C15.961 3.89998 15.8028 3.62126 15.5658 3.41988C15.3288 3.2185 15.0282 3.10744 14.7172 3.10636H13.8885V1.58485C13.8885 1.46475 13.8408 1.34957 13.7558 1.26465C13.6709 1.17973 13.5557 1.13202 13.4357 1.13202ZM18.4168 21.9622H5.56093V5.1124H7.96999V5.56523C7.96999 5.68532 8.0177 5.8005 8.10262 5.88543C8.18754 5.97035 8.30272 6.01806 8.42282 6.01806H15.5775C15.6976 6.01806 15.8128 5.97035 15.8977 5.88543C15.9827 5.8005 16.0304 5.68532 16.0304 5.56523V5.1124H18.4394L18.4168 21.9622ZM14.7172 4.01202C14.7711 4.01202 14.8244 4.02271 14.8742 4.04347C14.9239 4.06423 14.969 4.09466 15.007 4.13298C15.0449 4.17131 15.0748 4.21677 15.095 4.26674C15.1152 4.31671 15.1253 4.3702 15.1247 4.42409V5.13051H8.87565V4.42409C8.87505 4.3702 8.88515 4.31671 8.90536 4.26674C8.92558 4.21677 8.9555 4.17131 8.99341 4.13298C9.03131 4.09466 9.07644 4.06423 9.12618 4.04347C9.17593 4.02271 9.2293 4.01202 9.2832 4.01202H10.5647C10.6848 4.01202 10.8 3.96431 10.8849 3.87939C10.9698 3.79447 11.0175 3.67929 11.0175 3.55919V2.03768H12.9828V3.55919C12.9828 3.67929 13.0305 3.79447 13.1155 3.87939C13.2004 3.96431 13.3156 4.01202 13.4357 4.01202H14.7172Z" fill="white"/>
</svg>
