<svg width="25" height="25" viewBox="0 0 25 25" fill="none" xmlns="http://www.w3.org/2000/svg">
<path d="M2.50098 12.499H16.501M16.501 12.499L13.001 9.49902M16.501 12.499L13.001 15.499" stroke="white" stroke-width="1.5" stroke-linecap="round" stroke-linejoin="round"/>
<path d="M9.50195 7.5C9.51395 5.325 9.61095 4.147 10.379 3.379C11.258 2.5 12.672 2.5 15.5 2.5H16.5C19.329 2.5 20.743 2.5 21.622 3.379C22.5 4.257 22.5 5.672 22.5 8.5V16.5C22.5 19.328 22.5 20.743 21.622 21.621C20.742 22.5 19.329 22.5 16.5 22.5H15.5C12.672 22.5 11.258 22.5 10.379 21.621C9.61095 20.853 9.51395 19.675 9.50195 17.5" stroke="white" stroke-width="1.5" stroke-linecap="round"/>
</svg>
