<svg width="21" height="20" viewBox="0 0 21 20" fill="none" xmlns="http://www.w3.org/2000/svg">
<path fill-rule="evenodd" clip-rule="evenodd" d="M10.5161 6.875C9.68731 6.875 8.89246 7.20424 8.3064 7.79029C7.72035 8.37634 7.39111 9.1712 7.39111 10C7.39111 10.8288 7.72035 11.6237 8.3064 12.2097C8.89246 12.7958 9.68731 13.125 10.5161 13.125C11.3449 13.125 12.1398 12.7958 12.7258 12.2097C13.3119 11.6237 13.6411 10.8288 13.6411 10C13.6411 9.1712 13.3119 8.37634 12.7258 7.79029C12.1398 7.20424 11.3449 6.875 10.5161 6.875ZM8.64111 10C8.64111 9.50272 8.83866 9.02581 9.19029 8.67417C9.54192 8.32254 10.0188 8.125 10.5161 8.125C11.0134 8.125 11.4903 8.32254 11.8419 8.67417C12.1936 9.02581 12.3911 9.50272 12.3911 10C12.3911 10.4973 12.1936 10.9742 11.8419 11.3258C11.4903 11.6775 11.0134 11.875 10.5161 11.875C10.0188 11.875 9.54192 11.6775 9.19029 11.3258C8.83866 10.9742 8.64111 10.4973 8.64111 10Z" fill="#147771"/>
<path fill-rule="evenodd" clip-rule="evenodd" d="M10.4954 1.04169C10.1246 1.04169 9.81542 1.04169 9.56208 1.05835C9.30314 1.06914 9.04775 1.12264 8.80625 1.21669C8.52813 1.33176 8.27539 1.5005 8.06249 1.71326C7.84959 1.92602 7.68068 2.17864 7.56542 2.45669C7.44458 2.74835 7.41208 3.05669 7.39875 3.39169C7.39742 3.5142 7.36498 3.63437 7.30449 3.74093C7.244 3.84748 7.15744 3.93692 7.05292 4.00085C6.94532 4.05961 6.82455 4.09005 6.70196 4.08932C6.57937 4.08859 6.45898 4.05671 6.35208 3.99669C6.05542 3.84002 5.77208 3.71419 5.45875 3.67252C5.16037 3.63327 4.85718 3.65318 4.5665 3.73111C4.27581 3.80903 4.00332 3.94345 3.76458 4.12669C3.56273 4.28909 3.38901 4.48364 3.25042 4.70252C3.10875 4.91419 2.95375 5.18169 2.76875 5.50252L2.74792 5.53919C2.56208 5.86002 2.40792 6.12752 2.29625 6.35585C2.17958 6.59419 2.08792 6.82919 2.05458 7.08919C1.97508 7.69168 2.13815 8.30108 2.50792 8.78335C2.70042 9.03419 2.95125 9.21669 3.23458 9.39502C3.34022 9.45747 3.42823 9.54577 3.49033 9.65161C3.55243 9.75744 3.58659 9.87734 3.58958 10C3.58659 10.1227 3.55243 10.2426 3.49033 10.3484C3.42823 10.4543 3.34022 10.5426 3.23458 10.605C2.95125 10.7834 2.70125 10.9659 2.50792 11.2167C2.32468 11.4554 2.19026 11.7279 2.11234 12.0186C2.03441 12.3093 2.0145 12.6125 2.05375 12.9109C2.08792 13.1709 2.17875 13.4059 2.29542 13.6442C2.40792 13.8725 2.56208 14.14 2.74792 14.4609L2.76875 14.4975C2.95375 14.8184 3.10875 15.0859 3.25042 15.2975C3.39792 15.5167 3.55625 15.7142 3.76458 15.8725C4.00326 16.0559 4.27572 16.1905 4.56641 16.2685C4.8571 16.3466 5.16032 16.3666 5.45875 16.3275C5.77208 16.2859 6.05542 16.1609 6.35208 16.0034C6.45885 15.9434 6.5791 15.9116 6.70155 15.9108C6.82399 15.9101 6.94461 15.9405 7.05208 15.9992C7.15718 16.0626 7.24429 16.1519 7.30512 16.2585C7.36595 16.3652 7.39847 16.4856 7.39958 16.6084C7.41208 16.9434 7.44458 17.2517 7.56625 17.5434C7.68133 17.8215 7.85006 18.0742 8.06282 18.2871C8.27558 18.5 8.5282 18.6689 8.80625 18.7842C9.04792 18.8842 9.29792 18.9234 9.56208 18.9409C9.81542 18.9584 10.1246 18.9584 10.4954 18.9584H10.5371C10.9079 18.9584 11.2171 18.9584 11.4704 18.9417C11.7354 18.9233 11.9846 18.8842 12.2263 18.7834C12.5044 18.6683 12.7571 18.4995 12.97 18.2868C13.1829 18.074 13.3518 17.8214 13.4671 17.5434C13.5879 17.2517 13.6204 16.9434 13.6337 16.6084C13.6349 16.4857 13.6673 16.3654 13.7278 16.2586C13.7883 16.1519 13.8749 16.0624 13.9796 15.9984C14.0873 15.9397 14.2081 15.9094 14.3306 15.9103C14.4532 15.9112 14.5736 15.9432 14.6804 16.0034C14.9771 16.16 15.2604 16.2859 15.5738 16.3267C16.1762 16.4062 16.7856 16.2431 17.2679 15.8734C17.4762 15.7134 17.6346 15.5167 17.7821 15.2975C17.9237 15.0859 18.0788 14.8184 18.2638 14.4975L18.2846 14.4609C18.4704 14.14 18.6246 13.8725 18.7362 13.6442C18.8529 13.4059 18.9446 13.17 18.9779 12.9109C19.0574 12.3084 18.8944 11.699 18.5246 11.2167C18.3321 10.9659 18.0813 10.7834 17.7979 10.605C17.6923 10.5426 17.6043 10.4543 17.5422 10.3484C17.4801 10.2426 17.4459 10.1227 17.4429 10C17.4429 9.76835 17.5696 9.53835 17.7979 9.39502C18.0813 9.21669 18.3313 9.03419 18.5246 8.78335C18.7078 8.54462 18.8422 8.27213 18.9202 7.98144C18.9981 7.69075 19.018 7.38757 18.9788 7.08919C18.9391 6.83311 18.8574 6.58534 18.7371 6.35585C18.5948 6.07898 18.4439 5.80662 18.2846 5.53919L18.2638 5.50252C18.1115 5.23093 17.9509 4.96413 17.7821 4.70252C17.6435 4.48387 17.4698 4.28959 17.2679 4.12752C17.0292 3.94414 16.7568 3.80957 16.4661 3.7315C16.1754 3.65343 15.8722 3.63339 15.5738 3.67252C15.2604 3.71419 14.9771 3.83919 14.6804 3.99669C14.5736 4.05657 14.4534 4.08836 14.331 4.08909C14.2085 4.08982 14.0879 4.05946 13.9804 4.00085C13.8756 3.93712 13.7887 3.84777 13.7279 3.7412C13.6671 3.63464 13.6344 3.51436 13.6329 3.39169C13.6204 3.05669 13.5879 2.74835 13.4663 2.45669C13.3512 2.17856 13.1824 1.92583 12.9697 1.71293C12.7569 1.50002 12.5043 1.33112 12.2263 1.21585C11.9846 1.11585 11.7346 1.07669 11.4704 1.05919C11.2171 1.04169 10.9079 1.04169 10.5371 1.04169H10.4954ZM9.28458 2.37085C9.34875 2.34419 9.44625 2.32002 9.64708 2.30585C9.85292 2.29169 10.1196 2.29169 10.5163 2.29169C10.9129 2.29169 11.1796 2.29169 11.3854 2.30585C11.5863 2.32002 11.6838 2.34419 11.7479 2.37085C12.0037 2.47669 12.2063 2.67919 12.3121 2.93502C12.3454 3.01502 12.3729 3.14085 12.3837 3.43835C12.4088 4.09835 12.7496 4.73419 13.3546 5.08335C13.9596 5.43335 14.6804 5.41002 15.2646 5.10169C15.5279 4.96252 15.6504 4.92335 15.7371 4.91252C16.0109 4.87634 16.2879 4.95038 16.5071 5.11835C16.5621 5.16085 16.6321 5.23335 16.7446 5.40002C16.8604 5.57169 16.9937 5.80252 17.1921 6.14585C17.3904 6.48919 17.5229 6.72085 17.6137 6.90585C17.7029 7.08669 17.7304 7.18335 17.7387 7.25252C17.7749 7.52632 17.7009 7.80329 17.5329 8.02252C17.4796 8.09169 17.3846 8.17835 17.1329 8.33669C16.5729 8.68835 16.1929 9.30169 16.1929 10C16.1929 10.6984 16.5729 11.3117 17.1329 11.6634C17.3846 11.8217 17.4796 11.9084 17.5329 11.9775C17.7013 12.1967 17.7746 12.4734 17.7387 12.7475C17.7304 12.8167 17.7021 12.9142 17.6137 13.0942C17.5229 13.28 17.3904 13.5109 17.1921 13.8542C16.9937 14.1975 16.8596 14.4284 16.7446 14.6C16.6321 14.7667 16.5621 14.8392 16.5071 14.8817C16.2879 15.0497 16.0109 15.1237 15.7371 15.0875C15.6504 15.0767 15.5287 15.0375 15.2646 14.8984C14.6812 14.59 13.9596 14.5667 13.3546 14.9159C12.7496 15.2659 12.4088 15.9017 12.3837 16.5617C12.3729 16.8592 12.3454 16.985 12.3121 17.065C12.2597 17.1915 12.183 17.3065 12.0862 17.4033C11.9894 17.5001 11.8744 17.5768 11.7479 17.6292C11.6838 17.6559 11.5863 17.68 11.3854 17.6942C11.1796 17.7084 10.9129 17.7084 10.5163 17.7084C10.1196 17.7084 9.85292 17.7084 9.64708 17.6942C9.44625 17.68 9.34875 17.6559 9.28458 17.6292C9.15809 17.5768 9.04315 17.5001 8.94635 17.4033C8.84954 17.3065 8.77277 17.1915 8.72042 17.065C8.68708 16.985 8.65958 16.8592 8.64875 16.5617C8.62375 15.9017 8.28292 15.2659 7.67792 14.9167C7.07292 14.5667 6.35208 14.59 5.76792 14.8984C5.50458 15.0375 5.38208 15.0767 5.29542 15.0875C5.02161 15.1237 4.74465 15.0497 4.52542 14.8817C4.47042 14.8392 4.40042 14.7667 4.28792 14.6C4.13118 14.356 3.98194 14.1073 3.84042 13.8542C3.64208 13.5109 3.50958 13.2792 3.41875 13.0942C3.32958 12.9134 3.30208 12.8167 3.29375 12.7475C3.25757 12.4737 3.33161 12.1967 3.49958 11.9775C3.55292 11.9084 3.64792 11.8217 3.89958 11.6634C4.45958 11.3117 4.83958 10.6984 4.83958 10C4.83958 9.30169 4.45958 8.68835 3.89958 8.33669C3.64792 8.17835 3.55292 8.09169 3.49958 8.02252C3.33161 7.80329 3.25757 7.52632 3.29375 7.25252C3.30208 7.18335 3.33042 7.08585 3.41875 6.90585C3.50958 6.72002 3.64208 6.48919 3.84042 6.14585C4.03875 5.80252 4.17292 5.57169 4.28792 5.40002C4.40042 5.23335 4.47042 5.16085 4.52542 5.11835C4.74465 4.95038 5.02161 4.87634 5.29542 4.91252C5.38208 4.92335 5.50375 4.96252 5.76792 5.10169C6.35125 5.41002 7.07292 5.43335 7.67792 5.08335C8.28292 4.73419 8.62375 4.09835 8.64875 3.43835C8.65958 3.14085 8.68708 3.01502 8.72042 2.93502C8.82625 2.67919 9.02875 2.47669 9.28458 2.37085Z" fill="#147771"/>
</svg>
