<svg width="25" height="26" viewBox="0 0 25 26" fill="none" xmlns="http://www.w3.org/2000/svg">
<path d="M19.7913 3.625H5.20801C3.73509 3.625 2.99863 3.625 2.54134 4.05417C2.08301 4.48333 2.08301 5.175 2.08301 6.55729V7.27604C2.08301 8.35625 2.08301 8.89688 2.35384 9.34479C2.62467 9.79271 3.11738 10.0719 4.10592 10.6281L7.1403 12.3365C7.8028 12.7094 8.13509 12.8958 8.37259 13.1021C8.86634 13.5302 9.17051 14.0344 9.30801 14.6542C9.37467 14.95 9.37468 15.2979 9.37468 15.9927V18.774C9.37468 19.7208 9.37467 20.1948 9.63717 20.5635C9.89967 20.9333 10.3663 21.1156 11.2976 21.4802C13.2549 22.2448 14.233 22.6271 14.9288 22.1917C15.6247 21.7573 15.6247 20.7625 15.6247 18.7729V15.9917C15.6247 15.2979 15.6247 14.95 15.6913 14.6531C15.8222 14.046 16.1517 13.4998 16.6278 13.101C16.8643 12.8958 17.1966 12.7094 17.8591 12.3354L20.8934 10.6271C21.8809 10.0719 22.3757 9.79375 22.6455 9.34583C22.9163 8.89792 22.9163 8.35625 22.9163 7.275V6.55625C22.9163 5.175 22.9163 4.48333 22.458 4.05417C22.0018 3.625 21.2653 3.625 19.7913 3.625Z" stroke="#030632" stroke-width="1.5"/>
</svg>
