<svg width="7" height="4" viewBox="0 0 7 4" fill="none" xmlns="http://www.w3.org/2000/svg">
<path d="M3.32314 3.59053L0.646138 0.913529C0.609471 0.876196 0.578472 0.833196 0.553139 0.78453C0.527805 0.735863 0.515472 0.683529 0.516139 0.627529C0.516139 0.515529 0.552805 0.419196 0.626139 0.33853C0.700805 0.257863 0.798805 0.217529 0.920138 0.217529H6.59614C6.71747 0.217529 6.81514 0.258862 6.88914 0.341529C6.96314 0.424196 7.00014 0.520529 7.00014 0.630529C7.00014 0.657196 6.95681 0.751529 6.87014 0.913529L4.19314 3.59053C4.13114 3.65186 4.06447 3.6992 3.99314 3.73253C3.9218 3.76586 3.84347 3.78253 3.75814 3.78253C3.67281 3.78253 3.59447 3.76586 3.52314 3.73253C3.45181 3.6992 3.38514 3.65186 3.32314 3.59053Z" fill="#147771"/>
</svg>
