<svg width="14" height="15" viewBox="0 0 14 15" fill="none" xmlns="http://www.w3.org/2000/svg">
<path d="M4.9 9.5419V9.95C4.9 10.7854 5.23187 11.5866 5.82261 12.1774C6.41335 12.7681 7.21457 13.1 8.05 13.1C8.88543 13.1 9.68665 12.7681 10.2774 12.1774C10.8681 11.5866 11.2 10.7854 11.2 9.95V8.781C10.7328 8.61587 10.3389 8.29086 10.0882 7.86344C9.83736 7.43601 9.74576 6.93368 9.82953 6.44525C9.91331 5.95681 10.1671 5.51372 10.5459 5.19429C10.9248 4.87486 11.4044 4.69966 11.9 4.69966C12.3956 4.69966 12.8752 4.87486 13.2541 5.19429C13.6329 5.51372 13.8867 5.95681 13.9705 6.44525C14.0542 6.93368 13.9626 7.43601 13.7119 7.86344C13.4611 8.29086 13.0672 8.61587 12.6 8.781V9.95C12.6 11.1567 12.1206 12.314 11.2673 13.1673C10.414 14.0206 9.25674 14.5 8.05 14.5C6.84327 14.5 5.68596 14.0206 4.83266 13.1673C3.97937 12.314 3.5 11.1567 3.5 9.95V9.5419C2.52135 9.37619 1.63297 8.86935 0.99232 8.11121C0.35167 7.35306 0.000127315 6.39258 0 5.4L0 1.9C0 1.5287 0.1475 1.1726 0.410051 0.910051C0.672602 0.6475 1.0287 0.5 1.4 0.5L2.1 0.5C2.28565 0.5 2.4637 0.57375 2.59498 0.705025C2.72625 0.836301 2.8 1.01435 2.8 1.2C2.8 1.38565 2.72625 1.5637 2.59498 1.69497C2.4637 1.82625 2.28565 1.9 2.1 1.9H1.4V5.4C1.4 6.14261 1.695 6.8548 2.2201 7.3799C2.7452 7.905 3.45739 8.2 4.2 8.2C4.94261 8.2 5.6548 7.905 6.1799 7.3799C6.705 6.8548 7 6.14261 7 5.4V1.9H6.3C6.11435 1.9 5.9363 1.82625 5.80503 1.69497C5.67375 1.5637 5.6 1.38565 5.6 1.2C5.6 1.01435 5.67375 0.836301 5.80503 0.705025C5.9363 0.57375 6.11435 0.5 6.3 0.5H7C7.3713 0.5 7.7274 0.6475 7.98995 0.910051C8.2525 1.1726 8.4 1.5287 8.4 1.9V5.4C8.39987 6.39258 8.04833 7.35306 7.40768 8.11121C6.76703 8.86935 5.87865 9.37619 4.9 9.5419ZM11.9 7.5C12.0857 7.5 12.2637 7.42625 12.395 7.29497C12.5263 7.1637 12.6 6.98565 12.6 6.8C12.6 6.61435 12.5263 6.4363 12.395 6.30503C12.2637 6.17375 12.0857 6.1 11.9 6.1C11.7144 6.1 11.5363 6.17375 11.405 6.30503C11.2738 6.4363 11.2 6.61435 11.2 6.8C11.2 6.98565 11.2738 7.1637 11.405 7.29497C11.5363 7.42625 11.7144 7.5 11.9 7.5Z" fill="white"/>
</svg>
