<svg width="26" height="26" viewBox="0 0 26 26" fill="none" xmlns="http://www.w3.org/2000/svg">
<path d="M12.0775 19.5146V3.55532L7.77861 7.85417L6.47235 6.52761L13 0L19.5276 6.52761L18.2232 7.85601L13.9225 3.55532V19.5146H12.0775ZM3.06464 25.83C2.21594 25.83 1.50746 25.5459 0.939196 24.9776C0.369706 24.4081 0.0849609 23.699 0.0849609 22.8503V18.3799H1.92996V22.8503C1.92996 23.1332 2.04804 23.3934 2.2842 23.6308C2.52159 23.8669 2.78174 23.985 3.06464 23.985H22.9353C23.2182 23.985 23.4783 23.8669 23.7157 23.6308C23.9519 23.3934 24.07 23.1332 24.07 22.8503V18.3799H25.915V22.8503C25.915 23.699 25.6308 24.4075 25.0626 24.9758C24.4931 25.5453 23.784 25.83 22.9353 25.83H3.06464Z" fill="#030632"/>
</svg>
