<svg width="10" height="14" viewBox="0 0 10 14" fill="none" xmlns="http://www.w3.org/2000/svg">
<path d="M5.00016 6.66658C4.55814 6.66658 4.13421 6.49099 3.82165 6.17843C3.50909 5.86587 3.3335 5.44195 3.3335 4.99992C3.3335 4.55789 3.50909 4.13397 3.82165 3.82141C4.13421 3.50885 4.55814 3.33325 5.00016 3.33325C5.44219 3.33325 5.86612 3.50885 6.17868 3.82141C6.49124 4.13397 6.66683 4.55789 6.66683 4.99992C6.66683 5.21879 6.62372 5.43551 6.53996 5.63772C6.45621 5.83993 6.33344 6.02367 6.17868 6.17843C6.02391 6.33319 5.84018 6.45596 5.63797 6.53972C5.43576 6.62348 5.21903 6.66658 5.00016 6.66658ZM5.00016 0.333252C3.76249 0.333252 2.5755 0.824917 1.70033 1.70009C0.825161 2.57526 0.333496 3.76224 0.333496 4.99992C0.333496 8.49992 5.00016 13.6666 5.00016 13.6666C5.00016 13.6666 9.66683 8.49992 9.66683 4.99992C9.66683 3.76224 9.17517 2.57526 8.3 1.70009C7.42483 0.824917 6.23784 0.333252 5.00016 0.333252Z" fill="black"/>
</svg>
