<svg width="13" height="14" viewBox="0 0 13 14" fill="none" xmlns="http://www.w3.org/2000/svg">
<path d="M9.3125 2.9375C9.64402 2.9375 9.96196 2.8058 10.1964 2.57138C10.4308 2.33696 10.5625 2.01902 10.5625 1.6875C10.5625 1.35598 10.4308 1.03804 10.1964 0.803616C9.96196 0.569196 9.64402 0.4375 9.3125 0.4375C8.98098 0.4375 8.66304 0.569196 8.42862 0.803616C8.1942 1.03804 8.0625 1.35598 8.0625 1.6875C8.0625 2.01902 8.1942 2.33696 8.42862 2.57138C8.66304 2.8058 8.98098 2.9375 9.3125 2.9375ZM7.0625 11.625L7.6875 8.875L9 10.125V13.875H10.25V9.1875L8.9375 7.9375L9.3125 6.0625C9.7407 6.55327 10.269 6.94664 10.862 7.21616C11.4549 7.48567 12.0987 7.62508 12.75 7.625V6.375C11.65 6.39375 10.625 5.81875 10.0625 4.875L9.4375 3.875C9.2125 3.5 8.8125 3.25 8.375 3.25C8.1875 3.25 8.0625 3.3125 7.875 3.3125L4.625 4.6875V7.625H5.875V5.5L7 5.0625L6 10.125L2.9375 9.5L2.6875 10.75L7.0625 11.625ZM1.5 5.125C1.33424 5.125 1.17527 5.05915 1.05806 4.94194C0.940848 4.82473 0.875 4.66576 0.875 4.5C0.875 4.33424 0.940848 4.17527 1.05806 4.05806C1.17527 3.94085 1.33424 3.875 1.5 3.875H3.375V5.125H1.5ZM2.125 2.625C1.95924 2.625 1.80027 2.55915 1.68306 2.44194C1.56585 2.32473 1.5 2.16576 1.5 2C1.5 1.83424 1.56585 1.67527 1.68306 1.55806C1.80027 1.44085 1.95924 1.375 2.125 1.375H5.25V2.625H2.125ZM0.875 7.625C0.70924 7.625 0.550268 7.55915 0.433058 7.44194C0.315848 7.32473 0.25 7.16576 0.25 7C0.25 6.83424 0.315848 6.67527 0.433058 6.55806C0.550268 6.44085 0.70924 6.375 0.875 6.375H3.375V7.625H0.875Z" fill="#030632"/>
</svg>
