<svg width="8" height="4" viewBox="0 0 8 4" fill="none" xmlns="http://www.w3.org/2000/svg">
<path d="M3.56581 3.5898L0.888814 0.912797C0.852147 0.875464 0.821148 0.832464 0.795814 0.783797C0.770481 0.735131 0.758148 0.682797 0.758815 0.626797C0.758815 0.514797 0.795481 0.418464 0.868814 0.337797C0.943481 0.25713 1.04148 0.216797 1.16281 0.216797H6.83881C6.96015 0.216797 7.05781 0.25813 7.13181 0.340796C7.20581 0.423463 7.24281 0.519797 7.24281 0.629797C7.24281 0.656464 7.19948 0.750797 7.11281 0.912797L4.43581 3.5898C4.37381 3.65113 4.30715 3.69846 4.23581 3.7318C4.16448 3.76513 4.08615 3.7818 4.00081 3.7818C3.91548 3.7818 3.83715 3.76513 3.76581 3.7318C3.69448 3.69846 3.62781 3.65113 3.56581 3.5898Z" fill="#030632"/>
</svg>
